:FULLY-SPECIFIED
:FORCE-ALL-JOINTS-BE-3DOF
:DEGREES
146
root 8.62181 15.9554 -16.3569 6.51178 8.49853 3.49282
lfemur 25.5718 5.33541 -18.1568
ltibia 3.64765 -0 0
lfoot 5.30439 -1.33064 0.00681439
ltoes -15.4464 0 0
rfemur -41.2128 2.10327 15.7398
rtibia 39.1066 -0 0
rfoot -6.50538 -3.8138 -0.00646251
rtoes -16.1838 0 0
lowerback -6.77018 -3.30925 -4.24563
upperback -1.20287 -4.1683 2.27293
thorax 3.01763 -2.13209 4.34009
lowerneck -19.4263 -5.92543 -13.8676
upperneck 17.4592 -6.98757 12.921
head 9.70163 -2.82073 5.85196
lclavicle 1.57785e-15 1.43125e-14 0
lhumerus -35.3418 -2.0154 91.2993
lradius 19.0401 -0 0
lwrist -10.4765 0 0
lhand -12.0395 -23.0995 0.0716244
lfingers 7.12502 0 0
lthumb 14.016 6.36466 0.0571359
rclavicle 1.57785e-15 1.43125e-14 0
rhumerus -48.1737 4.26102 -81.8183
rradius 29.0403 -0 0
rwrist -15.5936 0 0
rhand -30.0481 -22.7875 -4.10223e-05
rfingers 7.12502 0 0
rthumb -3.36385 -52.7389 -0.000120845
147
root 8.59477 15.9931 -16.2025 6.58282 8.68028 3.10093
lfemur 23.7687 5.59661 -17.4402
ltibia 7.2953 -0 0
lfoot 5.75292 -0.982451 0.0109033
ltoes -14.5886 0 0
rfemur -40.6226 1.97033 16.4228
rtibia 39.0413 -0 0
rfoot -6.9544 -3.48394 -0.0103403
rtoes -15.8309 0 0
lowerback -6.65338 -3.31726 -3.85719
upperback -1.24635 -4.21308 2.37188
thorax 2.8913 -2.14788 4.22816
lowerneck -19.5634 -5.94278 -13.8019
upperneck 17.3843 -7.01843 12.9737
head 9.70513 -2.82013 5.85257
lclavicle 6.70898e-15 1.19271e-14 0
lhumerus -35.7367 -0.841197 90.5799
lradius 18.5692 -0 0
lwrist -11.0386 0 0
lhand -10.2366 -22.1891 0.114635
lfingers 7.12502 0 0
lthumb 15.7509 7.11939 0.0914423
rclavicle 6.70898e-15 1.19271e-14 0
rhumerus -47.9537 4.19653 -81.6414
rradius 28.9265 -0 0
rwrist -15.0797 0 0
rhand -29.6423 -22.7898 -6.56365e-05
rfingers 7.12502 0 0
rthumb -2.97194 -52.7459 -0.000193354
148
root 8.56772 16.0307 -16.048 6.65264 8.86252 2.70908
lfemur 21.9681 5.88011 -16.7318
ltibia 10.9429 -0 0
lfoot 6.20147 -0.634239 0.0122663
ltoes -13.7309 0 0
rfemur -40.0342 1.83037 17.1045
rtibia 38.976 -0 0
rfoot -7.40343 -3.15407 -0.0116329
rtoes -15.478 0 0
lowerback -6.53664 -3.32606 -3.46877
upperback -1.28992 -4.25779 2.47088
thorax 2.765 -2.16392 4.11625
lowerneck -19.7006 -5.95998 -13.7361
upperneck 17.3094 -7.04923 13.0264
head 9.70862 -2.81954 5.85318
lclavicle 1.18401e-14 9.54166e-15 0
lhumerus -36.1463 0.327933 89.8525
lradius 18.0982 -0 0
lwrist -11.6007 0 0
lhand -8.43313 -21.2779 0.128977
lfingers 7.12502 0 0
lthumb 17.486 7.87481 0.102882
rclavicle 1.18401e-14 9.54166e-15 0
rhumerus -47.7339 4.13136 -81.4648
rradius 28.8127 -0 0
rwrist -14.5658 0 0
rhand -29.2365 -22.7921 -7.38414e-05
rfingers 7.12502 0 0
rthumb -2.58002 -52.753 -0.000217524
149
root 8.54067 16.0684 -15.8936 6.72123 9.04522 2.31725
lfemur 20.1703 6.1856 -16.0324
ltibia 14.5906 -0 0
lfoot 6.65001 -0.286027 0.0109033
ltoes -12.8731 0 0
rfemur -39.4475 1.68343 17.7846
rtibia 38.9107 -0 0
rfoot -7.85245 -2.8242 -0.0103403
rtoes -15.1252 0 0
lowerback -6.41996 -3.33564 -3.08036
upperback -1.33356 -4.30242 2.56991
thorax 2.63874 -2.1802 4.00439
lowerneck -19.8379 -5.97701 -13.6703
upperneck 17.2345 -7.07995 13.0792
head 9.71211 -2.81895 5.85379
lclavicle 1.69712e-14 7.15625e-15 0
lhumerus -36.5708 1.49174 89.1165
lradius 17.6273 -0 0
lwrist -12.1629 0 0
lhand -6.62969 -20.3666 0.114635
lfingers 7.12502 0 0
lthumb 19.2212 8.63023 0.0914423
rclavicle 1.69712e-14 7.15625e-15 0
rhumerus -47.5143 4.06552 -81.2885
rradius 28.699 -0 0
rwrist -14.052 0 0
rhand -28.8306 -22.7945 -6.56365e-05
rfingers 7.12502 0 0
rthumb -2.18811 -52.7601 -0.000193354
150
root 8.51363 16.106 -15.7392 6.78858 9.22839 1.92545
lfemur 18.3752 6.51275 -15.3426
ltibia 18.2382 -0 0
lfoot 7.09854 0.0621639 0.00681439
ltoes -12.0154 0 0
rfemur -38.8626 1.52955 18.4631
rtibia 38.8454 -0 0
rfoot -8.30147 -2.49434 -0.00646251
rtoes -14.7723 0 0
lowerback -6.30334 -3.34602 -2.69197
upperback -1.37728 -4.34697 2.66899
thorax 2.5125 -2.19673 3.89256
lowerneck -19.9751 -5.9939 -13.6044
upperneck 17.1595 -7.11061 13.132
head 9.71561 -2.81835 5.8544
lclavicle 2.21024e-14 4.77083e-15 0
lhumerus -37.0105 2.64996 88.3714
lradius 17.1564 -0 0
lwrist -12.725 0 0
lhand -4.82671 -19.4562 0.0716244
lfingers 7.12502 0 0
lthumb 20.9561 9.38496 0.0571359
rclavicle 2.21024e-14 4.77083e-15 0
rhumerus -47.295 3.99901 -81.1124
rradius 28.5853 -0 0
rwrist -13.5382 0 0
rhand -28.4248 -22.7968 -4.10223e-05
rfingers 7.12502 0 0
rthumb -1.7962 -52.7671 -0.000120845
151
root 8.48658 16.1437 -15.5848 6.8547 9.412 1.53366
lfemur 16.583 6.86119 -14.6629
ltibia 21.8859 0 0
lfoot 7.54703 0.410312 0
ltoes -11.1576 0 0
rfemur -38.2796 1.36876 19.1399
rtibia 38.7801 0 0
rfoot -8.75045 -2.16453 0
rtoes -14.4194 0 0
lowerback -6.1868 -3.35719 -2.3036
upperback -1.42108 -4.39145 2.7681
thorax 2.38629 -2.21351 3.78076
lowerneck -20.1124 -6.01062 -13.5385
upperneck 17.0845 -7.1412 13.1849
head 9.7191 -2.81776 5.85501
lclavicle 2.72335e-14 2.38542e-15 0
lhumerus -37.4658 3.80233 87.6165
lradius 16.6855 0 0
lwrist -13.2871 0 0
lhand -3.02465 -18.5477 0
lfingers 7.12502 0 0
lthumb 22.6903 10.1383 0
rclavicle 2.72335e-14 2.38542e-15 0
rhumerus -47.0759 3.93182 -80.9366
rradius 28.4715 0 0
rwrist -13.0243 0 0
rhand -28.019 -22.7991 0
rfingers 7.12502 0 0
rthumb -1.40429 -52.7742 0
152
root 8.46073 16.1861 -15.4508 6.96308 9.4866 1.24285
lfemur 14.5781 6.99885 -14.37
ltibia 25.1641 -0 0
lfoot 7.5644 1.53077 0.000849992
ltoes -12.6204 0 0
rfemur -37.5533 1.41765 19.6238
rtibia 38.1996 -0 0
rfoot -9.09002 -1.97008 -0.00288128
rtoes -14.0445 0 0
lowerback -6.06139 -3.25724 -2.08634
upperback -1.47046 -4.27429 2.87602
thorax 2.24901 -2.15192 3.78859
lowerneck -20.0732 -6.12435 -13.6906
upperneck 16.9283 -7.28027 13.3394
head 9.69304 -2.87742 5.91198
lclavicle 2.12741e-14 -5.30083e-16 0
lhumerus -37.8839 2.50238 88.2634
lradius 17.0911 -0 0
lwrist -12.2635 0 0
lhand -3.03191 -18.5801 1.02771e-05
lfingers 7.12502 0 0
lthumb 22.6833 10.1067 9.60723e-06
rclavicle 2.12741e-14 -5.30083e-16 0
rhumerus -46.9499 4.26571 -81.0119
rradius 28.8253 -0 0
rwrist -13.727 0 0
rhand -28.2792 -23.3298 0.00602703
rfingers 7.12502 0 0
rthumb -1.65558 -53.3024 0.0057927
153
root 8.43488 16.2285 -15.3169 7.07109 9.56174 0.952128
lfemur 12.5733 7.1466 -14.082
ltibia 28.4422 -0 0
lfoot 7.58179 2.65122 0.00136012
ltoes -14.0833 0 0
rfemur -36.8267 1.4604 20.1083
rtibia 37.6192 -0 0
rfoot -9.42959 -1.77562 -0.0046101
rtoes -13.6696 0 0
lowerback -5.9356 -3.15777 -1.86889
upperback -1.51962 -4.15705 2.98382
thorax 2.11174 -2.0903 3.79627
lowerneck -20.0338 -6.23797 -13.8429
upperneck 16.7716 -7.41891 13.4944
head 9.66691 -2.93705 5.96898
lclavicle 1.53147e-14 -3.44559e-15 0
lhumerus -38.3164 1.20726 88.9193
lradius 17.4967 -0 0
lwrist -11.2399 0 0
lhand -3.03917 -18.6126 1.64433e-05
lfingers 7.12502 0 0
lthumb 22.6764 10.0751 1.53716e-05
rclavicle 1.53147e-14 -3.44559e-15 0
rhumerus -46.8244 4.59976 -81.0865
rradius 29.179 -0 0
rwrist -14.4297 0 0
rhand -28.5394 -23.8606 0.0096435
rfingers 7.12502 0 0
rthumb -1.90691 -53.8306 0.00926856
154
root 8.40902 16.2709 -15.1829 7.17874 9.63743 0.661481
lfemur 10.5686 7.30425 -13.7993
ltibia 31.7204 -0 0
lfoot 7.59918 3.77168 0.00153018
ltoes -15.5461 0 0
rfemur -36.0996 1.497 20.5933
rtibia 37.0387 -0 0
rfoot -9.76917 -1.58116 -0.00518638
rtoes -13.2947 0 0
lowerback -5.80946 -3.05878 -1.65124
upperback -1.56854 -4.03971 3.0915
thorax 1.97449 -2.02867 3.8038
lowerneck -19.994 -6.35149 -13.9952
upperneck 16.6145 -7.55714 13.6498
head 9.64072 -2.99665 6.026
lclavicle 9.35531e-15 -6.36109e-15 0
lhumerus -38.7635 -0.0827944 89.5848
lradius 17.9023 -0 0
lwrist -10.2164 0 0
lhand -3.04643 -18.6451 1.84987e-05
lfingers 7.12502 0 0
lthumb 22.6694 10.0435 1.7293e-05
rclavicle 9.35531e-15 -6.36109e-15 0
rhumerus -46.6991 4.93398 -81.1604
rradius 29.5328 -0 0
rwrist -15.1324 0 0
rhand -28.7997 -24.3914 0.010849
rfingers 7.12502 0 0
rthumb -2.15826 -54.3589 0.0104272
155
root 8.38317 16.3134 -15.0489 7.28603 9.71365 0.370913
lfemur 8.56392 7.47162 -13.5223
ltibia 34.9986 -0 0
lfoot 7.61657 4.89214 0.00136012
ltoes -17.0089 0 0
rfemur -35.3723 1.52744 21.0787
rtibia 36.4583 -0 0
rfoot -10.1088 -1.38669 -0.0046101
rtoes -12.9198 0 0
lowerback -5.68295 -2.96026 -1.43338
upperback -1.61724 -3.92228 3.19907
thorax 1.83725 -1.96702 3.81118
lowerneck -19.9539 -6.4649 -14.1477
upperneck 16.457 -7.69494 13.8056
head 9.61448 -3.05623 6.08306
lclavicle 3.39591e-15 -9.27659e-15 0
lhumerus -39.2258 -1.36752 90.2606
lradius 18.3078 -0 0
lwrist -9.19278 0 0
lhand -3.05368 -18.6775 1.64433e-05
lfingers 7.12502 0 0
lthumb 22.6624 10.0119 1.53716e-05
rclavicle 3.39591e-15 -9.27659e-15 0
rhumerus -46.5743 5.26835 -81.2336
rradius 29.8866 -0 0
rwrist -15.835 0 0
rhand -29.06 -24.9222 0.0096435
rfingers 7.12502 0 0
rthumb -2.40961 -54.8871 0.00926856
156
root 8.35732 16.3558 -14.915 7.39295 9.7904 0.0804239
lfemur 6.55933 7.64849 -13.2512
ltibia 38.2767 -0 0
lfoot 7.63396 6.01259 0.000849992
ltoes -18.4718 0 0
rfemur -34.6447 1.55173 21.5645
rtibia 35.8778 -0 0
rfoot -10.4483 -1.19223 -0.00288128
rtoes -12.5449 0 0
lowerback -5.55608 -2.86223 -1.21534
upperback -1.66571 -3.80475 3.30652
thorax 1.70002 -1.90535 3.81841
lowerneck -19.9135 -6.57821 -14.3003
upperneck 16.2991 -7.83232 13.9618
head 9.58817 -3.11578 6.14015
lclavicle -2.56349e-15 -1.21921e-14 0
lhumerus -39.7035 -2.64667 90.9472
lradius 18.7134 -0 0
lwrist -8.1692 0 0
lhand -3.06094 -18.71 1.02771e-05
lfingers 7.12502 0 0
lthumb 22.6555 9.98027 9.60723e-06
rclavicle -2.56349e-15 -1.21921e-14 0
rhumerus -46.4498 5.60288 -81.3061
rradius 30.2403 -0 0
rwrist -16.5377 0 0
rhand -29.3202 -25.453 0.00602703
rfingers 7.12502 0 0
rthumb -2.66094 -55.4153 0.0057927
157
root 8.33147 16.3982 -14.781 7.49949 9.86769 -0.209987
lfemur 4.55473 7.83466 -12.9864
ltibia 41.5549 0 0
lfoot 7.65133 7.13305 0
ltoes -19.9346 0 0
rfemur -33.917 1.56984 22.0505
rtibia 35.2974 0 0
rfoot -10.7879 -0.997787 0
rtoes -12.17 0 0
lowerback -5.42884 -2.76468 -0.997089
upperback -1.71395 -3.68714 3.41386
thorax 1.56281 -1.84367 3.8255
lowerneck -19.8728 -6.69141 -14.453
upperneck 16.1407 -7.96927 14.1185
head 9.5618 -3.17531 6.19727
lclavicle -8.52289e-15 -1.51076e-14 0
lhumerus -40.1972 -3.91995 91.6454
lradius 19.119 0 0
lwrist -7.14562 0 0
lhand -3.0682 -18.7424 0
lfingers 7.12502 0 0
lthumb 22.6485 9.94867 0
rclavicle -8.52289e-15 -1.51076e-14 0
rhumerus -46.3257 5.93757 -81.3779
rradius 30.5941 0 0
rwrist -17.2404 0 0
rhand -29.5804 -25.9837 0
rfingers 7.12502 0 0
rthumb -2.91223 -55.9435 0
158
root 8.31443 16.4336 -14.6565 7.61084 9.83708 -0.29493
lfemur 2.81804 7.8876 -13.1655
ltibia 43.6712 -0 0
lfoot 6.79491 8.14241 -0.0377605
ltoes -18.3681 0 0
rfemur -33.1753 1.52182 22.3014
rtibia 34.5885 -0 0
rfoot -11.0578 -0.787779 -0.00247347
rtoes -12.6327 0 0
lowerback -5.3614 -2.64263 -0.953324
upperback -1.76022 -3.52524 3.44342
thorax 1.46471 -1.76107 3.84656
lowerneck -19.6609 -6.74838 -14.5614
upperneck 15.8969 -8.05476 14.2704
head 9.4671 -3.21538 6.25332
lclavicle -1.09746e-15 -1.39149e-14 0
lhumerus -40.8612 -5.14701 92.3963
lradius 20.0803 -0 0
lwrist -5.7287 0 0
lhand -2.63257 -18.5909 0.0028792
lfingers 7.12502 0 0
lthumb 23.0663 10.0454 0.00176313
rclavicle -1.09746e-15 -1.39149e-14 0
rhumerus -46.1395 6.38973 -81.4061
rradius 31.0408 -0 0
rwrist -17.3881 0 0
rhand -29.3281 -26.4501 -0.00513549
rfingers 7.12502 0 0
rthumb -2.66856 -56.4124 -0.00498626
